<mxfile host="app.diagrams.net" modified="2022-10-05T20:29:25.220Z" agent="5.0 (Windows NT 10.0; Win64; x64) AppleWebKit/537.36 (KHTML, like Gecko) Chrome/106.0.0.0 Safari/537.36" etag="6SxJwMeIDFJHnpCEuAQg" version="20.4.0" type="github">
  <diagram id="kgpKYQtTHZ0yAKxKKP6v" name="Page-1">
    <mxGraphModel dx="1955" dy="896" grid="1" gridSize="10" guides="1" tooltips="1" connect="1" arrows="1" fold="1" page="1" pageScale="1" pageWidth="850" pageHeight="1100" background="#182E3E" math="0" shadow="0">
      <root>
        <mxCell id="0" />
        <mxCell id="1" parent="0" />
        <mxCell id="3nuBFxr9cyL0pnOWT2aG-1" value="Alice" style="shape=umlLifeline;perimeter=lifelinePerimeter;container=1;collapsible=0;recursiveResize=0;rounded=0;shadow=0;strokeWidth=1;fillColor=#EEEEEE;strokeColor=#FFFFFF;fontColor=#1A1A1A;" parent="1" vertex="1">
          <mxGeometry x="143" y="97" width="120" height="410" as="geometry" />
        </mxCell>
        <mxCell id="3nuBFxr9cyL0pnOWT2aG-2" value="Asymmetric PSK&#xa;Exchange" style="points=[];perimeter=orthogonalPerimeter;rounded=0;shadow=0;strokeWidth=1;fillColor=#EEEEEE;strokeColor=#FFFFFF;fontColor=#1A1A1A;" parent="3nuBFxr9cyL0pnOWT2aG-1" vertex="1">
          <mxGeometry x="7.5" y="80" width="105" height="60" as="geometry" />
        </mxCell>
        <mxCell id="B1Vj16RPhi0-6EyoQAJi-5" value="Symmetric PSK&#xa;Exchange" style="points=[];perimeter=orthogonalPerimeter;rounded=0;shadow=0;strokeWidth=1;fillColor=#EEEEEE;strokeColor=#FFFFFF;fontColor=#1A1A1A;" vertex="1" parent="3nuBFxr9cyL0pnOWT2aG-1">
          <mxGeometry x="7.5" y="220" width="105" height="60" as="geometry" />
        </mxCell>
        <mxCell id="B1Vj16RPhi0-6EyoQAJi-9" value="AUTH PASSED" style="points=[];perimeter=orthogonalPerimeter;rounded=0;shadow=0;strokeWidth=1;fillColor=#EEEEEE;strokeColor=#FFFFFF;fontColor=#1A1A1A;" vertex="1" parent="3nuBFxr9cyL0pnOWT2aG-1">
          <mxGeometry x="7.5" y="150" width="105" height="60" as="geometry" />
        </mxCell>
        <mxCell id="B1Vj16RPhi0-6EyoQAJi-17" value="AUTH PASSED" style="points=[];perimeter=orthogonalPerimeter;rounded=0;shadow=0;strokeWidth=1;fillColor=#EEEEEE;strokeColor=#FFFFFF;fontColor=#1A1A1A;" vertex="1" parent="3nuBFxr9cyL0pnOWT2aG-1">
          <mxGeometry x="7.5" y="290" width="105" height="60" as="geometry" />
        </mxCell>
        <mxCell id="3nuBFxr9cyL0pnOWT2aG-5" value="Bob" style="shape=umlLifeline;perimeter=lifelinePerimeter;container=1;collapsible=0;recursiveResize=0;rounded=0;shadow=0;strokeWidth=1;fillColor=#EEEEEE;strokeColor=#FFFFFF;fontColor=#1A1A1A;" parent="1" vertex="1">
          <mxGeometry x="633" y="87" width="100" height="440" as="geometry" />
        </mxCell>
        <mxCell id="3nuBFxr9cyL0pnOWT2aG-6" value="Encrypting&#xa;with &#xa;PSK now" style="points=[];perimeter=orthogonalPerimeter;rounded=0;shadow=0;strokeWidth=1;fillColor=#EEEEEE;strokeColor=#FFFFFF;fontColor=#1A1A1A;" parent="3nuBFxr9cyL0pnOWT2aG-5" vertex="1">
          <mxGeometry x="10" y="90" width="80" height="60" as="geometry" />
        </mxCell>
        <mxCell id="B1Vj16RPhi0-6EyoQAJi-8" value="Encrypting&#xa;with&#xa;symmetric &#xa;PSK now" style="points=[];perimeter=orthogonalPerimeter;rounded=0;shadow=0;strokeWidth=1;fillColor=#EEEEEE;strokeColor=#FFFFFF;fontColor=#1A1A1A;" vertex="1" parent="3nuBFxr9cyL0pnOWT2aG-5">
          <mxGeometry x="10" y="230" width="80" height="60" as="geometry" />
        </mxCell>
        <mxCell id="B1Vj16RPhi0-6EyoQAJi-21" value="MESSAGE.pdf&#xa;Received&#xa;+ digital sig" style="points=[];perimeter=orthogonalPerimeter;rounded=0;shadow=0;strokeWidth=1;fillColor=#EEEEEE;strokeColor=#FFFFFF;fontColor=#1A1A1A;" vertex="1" parent="3nuBFxr9cyL0pnOWT2aG-5">
          <mxGeometry x="10" y="380" width="80" height="60" as="geometry" />
        </mxCell>
        <mxCell id="B1Vj16RPhi0-6EyoQAJi-1" value="&lt;span style=&quot;margin: 0px; padding: 0px; user-select: text; -webkit-user-drag: none; -webkit-tap-highlight-color: transparent; color: rgb(0, 0, 0); font-size: 12pt; text-align: justify; background-color: rgb(255, 255, 255); line-height: 20.175px; font-family: &amp;quot;Times New Roman&amp;quot;, &amp;quot;Times New Roman_EmbeddedFont&amp;quot;, &amp;quot;Times New Roman_MSFontService&amp;quot;, serif; font-variant-ligatures: none !important;&quot; class=&quot;TextRun SCXW241746635 BCX0&quot; lang=&quot;EN-US&quot; data-contrast=&quot;none&quot;&gt;&lt;span style=&quot;margin: 0px; padding: 0px; user-select: text; -webkit-user-drag: none; -webkit-tap-highlight-color: transparent;&quot; class=&quot;NormalTextRun SCXW241746635 BCX0&quot;&gt;Alice wants to send a file &lt;/span&gt;&lt;/span&gt;&lt;span style=&quot;margin: 0px; padding: 0px; user-select: text; -webkit-user-drag: none; -webkit-tap-highlight-color: transparent; color: rgb(0, 0, 0); font-size: 12pt; text-align: justify; background-color: rgb(255, 255, 255); text-decoration-line: underline; line-height: 20.175px; font-family: &amp;quot;Times New Roman&amp;quot;, &amp;quot;Times New Roman_EmbeddedFont&amp;quot;, &amp;quot;Times New Roman_MSFontService&amp;quot;, serif; font-weight: bold; font-variant-ligatures: none !important;&quot; class=&quot;TextRun Underlined SCXW241746635 BCX0&quot; lang=&quot;EN-US&quot; data-contrast=&quot;none&quot;&gt;&lt;span style=&quot;margin: 0px; padding: 0px; user-select: text; -webkit-user-drag: none; -webkit-tap-highlight-color: transparent;&quot; class=&quot;NormalTextRun SCXW241746635 BCX0&quot;&gt;M&lt;/span&gt;&lt;/span&gt;&lt;span style=&quot;margin: 0px; padding: 0px; user-select: text; -webkit-user-drag: none; -webkit-tap-highlight-color: transparent; color: rgb(0, 0, 0); font-size: 12pt; text-align: justify; background-color: rgb(255, 255, 255); line-height: 20.175px; font-family: &amp;quot;Times New Roman&amp;quot;, &amp;quot;Times New Roman_EmbeddedFont&amp;quot;, &amp;quot;Times New Roman_MSFontService&amp;quot;, serif; font-variant-ligatures: none !important;&quot; class=&quot;TextRun SCXW241746635 BCX0&quot; lang=&quot;EN-US&quot; data-contrast=&quot;none&quot;&gt;&lt;span style=&quot;margin: 0px; padding: 0px; user-select: text; -webkit-user-drag: none; -webkit-tap-highlight-color: transparent;&quot; class=&quot;NormalTextRun SCXW241746635 BCX0&quot;&gt; to Bob. She wants to guarantee &lt;/span&gt;&lt;span style=&quot;margin: 0px; padding: 0px; user-select: text; -webkit-user-drag: none; -webkit-tap-highlight-color: transparent; background-repeat: repeat-x; background-position: left bottom; background-image: var(--urlContextualSpellingAndGrammarErrorV2, url(&amp;quot;data:image/svg+xml;base64,PD94bWwgdmVyc2lvbj0iMS4wIiBlbmNvZGluZz0iVVRGLTgiPz4KPHN2ZyB3aWR0aD0iNXB4IiBoZWlnaHQ9IjNweCIgdmlld0JveD0iMCAwIDUgMyIgdmVyc2lvbj0iMS4xIiB4bWxucz0iaHR0cDovL3d3dy53My5vcmcvMjAwMC9zdmciIHhtbG5zOnhsaW5rPSJodHRwOi8vd3d3LnczLm9yZy8xOTk5L3hsaW5rIj4KICAgIDwhLS0gR2VuZXJhdG9yOiBTa2V0Y2ggNTUuMiAoNzgxODEpIC0gaHR0cHM6Ly9za2V0Y2hhcHAuY29tIC0tPgogICAgPHRpdGxlPmdyYW1tYXJfZG91YmxlX2xpbmU8L3RpdGxlPgogICAgPGRlc2M+Q3JlYXRlZCB3aXRoIFNrZXRjaC48L2Rlc2M+CiAgICA8ZyBpZD0iZ3JhbW1hcl9kb3VibGVfbGluZSIgc3Ryb2tlPSJub25lIiBzdHJva2Utd2lkdGg9IjEiIGZpbGw9Im5vbmUiIGZpbGwtcnVsZT0iZXZlbm9kZCIgc3Ryb2tlLWxpbmVjYXA9InJvdW5kIj4KICAgICAgICA8ZyBpZD0iR3JhbW1hci1UaWxlLUNvcHkiIHN0cm9rZT0iIzMzNTVGRiI+CiAgICAgICAgICAgIDxwYXRoIGQ9Ik0wLDAuNSBMNSwwLjUiIGlkPSJMaW5lLTItQ29weS0xMCI+PC9wYXRoPgogICAgICAgICAgICA8cGF0aCBkPSJNMCwyLjUgTDUsMi41IiBpZD0iTGluZS0yLUNvcHktMTEiPjwvcGF0aD4KICAgICAgICA8L2c+CiAgICA8L2c+Cjwvc3ZnPg==&amp;quot;)); border-bottom: 1px solid transparent;&quot; class=&quot;NormalTextRun ContextualSpellingAndGrammarErrorV2Themed SCXW241746635 BCX0&quot;&gt;the &lt;br&gt;&lt;/span&gt;&lt;/span&gt;&lt;span style=&quot;margin: 0px; padding: 0px; user-select: text; -webkit-user-drag: none; -webkit-tap-highlight-color: transparent; color: rgb(0, 0, 0); font-size: 12pt; text-align: justify; background-color: rgb(255, 255, 255); text-decoration-line: underline; line-height: 20.175px; font-family: &amp;quot;Times New Roman&amp;quot;, &amp;quot;Times New Roman_EmbeddedFont&amp;quot;, &amp;quot;Times New Roman_MSFontService&amp;quot;, serif; font-weight: bold; font-variant-ligatures: none !important;&quot; class=&quot;TextRun Underlined SCXW241746635 BCX0&quot; lang=&quot;EN-US&quot; data-contrast=&quot;none&quot;&gt;&lt;span style=&quot;margin: 0px; padding: 0px; user-select: text; -webkit-user-drag: none; -webkit-tap-highlight-color: transparent; background-repeat: repeat-x; background-position: left bottom; background-image: var(--urlContextualSpellingAndGrammarErrorV2, url(&amp;quot;data:image/svg+xml;base64,PD94bWwgdmVyc2lvbj0iMS4wIiBlbmNvZGluZz0iVVRGLTgiPz4KPHN2ZyB3aWR0aD0iNXB4IiBoZWlnaHQ9IjNweCIgdmlld0JveD0iMCAwIDUgMyIgdmVyc2lvbj0iMS4xIiB4bWxucz0iaHR0cDovL3d3dy53My5vcmcvMjAwMC9zdmciIHhtbG5zOnhsaW5rPSJodHRwOi8vd3d3LnczLm9yZy8xOTk5L3hsaW5rIj4KICAgIDwhLS0gR2VuZXJhdG9yOiBTa2V0Y2ggNTUuMiAoNzgxODEpIC0gaHR0cHM6Ly9za2V0Y2hhcHAuY29tIC0tPgogICAgPHRpdGxlPmdyYW1tYXJfZG91YmxlX2xpbmU8L3RpdGxlPgogICAgPGRlc2M+Q3JlYXRlZCB3aXRoIFNrZXRjaC48L2Rlc2M+CiAgICA8ZyBpZD0iZ3JhbW1hcl9kb3VibGVfbGluZSIgc3Ryb2tlPSJub25lIiBzdHJva2Utd2lkdGg9IjEiIGZpbGw9Im5vbmUiIGZpbGwtcnVsZT0iZXZlbm9kZCIgc3Ryb2tlLWxpbmVjYXA9InJvdW5kIj4KICAgICAgICA8ZyBpZD0iR3JhbW1hci1UaWxlLUNvcHkiIHN0cm9rZT0iIzMzNTVGRiI+CiAgICAgICAgICAgIDxwYXRoIGQ9Ik0wLDAuNSBMNSwwLjUiIGlkPSJMaW5lLTItQ29weS0xMCI+PC9wYXRoPgogICAgICAgICAgICA8cGF0aCBkPSJNMCwyLjUgTDUsMi41IiBpZD0iTGluZS0yLUNvcHktMTEiPjwvcGF0aD4KICAgICAgICA8L2c+CiAgICA8L2c+Cjwvc3ZnPg==&amp;quot;)); border-bottom: 1px solid transparent;&quot; class=&quot;NormalTextRun ContextualSpellingAndGrammarErrorV2Themed SCXW241746635 BCX0&quot;&gt;confidentiality&lt;/span&gt;&lt;/span&gt;&lt;span style=&quot;margin: 0px; padding: 0px; user-select: text; -webkit-user-drag: none; -webkit-tap-highlight-color: transparent; color: rgb(0, 0, 0); font-size: 12pt; text-align: justify; background-color: rgb(255, 255, 255); line-height: 20.175px; font-family: &amp;quot;Times New Roman&amp;quot;, &amp;quot;Times New Roman_EmbeddedFont&amp;quot;, &amp;quot;Times New Roman_MSFontService&amp;quot;, serif; font-variant-ligatures: none !important;&quot; class=&quot;TextRun SCXW241746635 BCX0&quot; lang=&quot;EN-US&quot; data-contrast=&quot;none&quot;&gt;&lt;span style=&quot;margin: 0px; padding: 0px; user-select: text; -webkit-user-drag: none; -webkit-tap-highlight-color: transparent;&quot; class=&quot;NormalTextRun SCXW241746635 BCX0&quot;&gt; and &lt;/span&gt;&lt;/span&gt;&lt;span style=&quot;margin: 0px; padding: 0px; user-select: text; -webkit-user-drag: none; -webkit-tap-highlight-color: transparent; color: rgb(0, 0, 0); font-size: 12pt; text-align: justify; background-color: rgb(255, 255, 255); text-decoration-line: underline; line-height: 20.175px; font-family: &amp;quot;Times New Roman&amp;quot;, &amp;quot;Times New Roman_EmbeddedFont&amp;quot;, &amp;quot;Times New Roman_MSFontService&amp;quot;, serif; font-weight: bold; font-variant-ligatures: none !important;&quot; class=&quot;TextRun Underlined SCXW241746635 BCX0&quot; lang=&quot;EN-US&quot; data-contrast=&quot;none&quot;&gt;&lt;span style=&quot;margin: 0px; padding: 0px; user-select: text; -webkit-user-drag: none; -webkit-tap-highlight-color: transparent;&quot; class=&quot;NormalTextRun SCXW241746635 BCX0&quot;&gt;integrity&lt;/span&gt;&lt;/span&gt;&lt;span style=&quot;margin: 0px; padding: 0px; user-select: text; -webkit-user-drag: none; -webkit-tap-highlight-color: transparent; color: rgb(0, 0, 0); font-size: 12pt; text-align: justify; background-color: rgb(255, 255, 255); line-height: 20.175px; font-family: &amp;quot;Times New Roman&amp;quot;, &amp;quot;Times New Roman_EmbeddedFont&amp;quot;, &amp;quot;Times New Roman_MSFontService&amp;quot;, serif; font-variant-ligatures: none !important;&quot; class=&quot;TextRun SCXW241746635 BCX0&quot; lang=&quot;EN-US&quot; data-contrast=&quot;none&quot;&gt;&lt;span style=&quot;margin: 0px; padding: 0px; user-select: text; -webkit-user-drag: none; -webkit-tap-highlight-color: transparent;&quot; class=&quot;NormalTextRun SCXW241746635 BCX0&quot;&gt; during the transmission. &lt;br&gt;Besides, Alice also wants to demonstrate that &lt;/span&gt;&lt;/span&gt;&lt;span style=&quot;margin: 0px; padding: 0px; user-select: text; -webkit-user-drag: none; -webkit-tap-highlight-color: transparent; color: rgb(0, 0, 0); font-size: 12pt; text-align: justify; background-color: rgb(255, 255, 255); text-decoration-line: underline; line-height: 20.175px; font-family: &amp;quot;Times New Roman&amp;quot;, &amp;quot;Times New Roman_EmbeddedFont&amp;quot;, &amp;quot;Times New Roman_MSFontService&amp;quot;, serif; font-weight: bold; font-variant-ligatures: none !important;&quot; class=&quot;TextRun Underlined SCXW241746635 BCX0&quot; lang=&quot;EN-US&quot; data-contrast=&quot;none&quot;&gt;&lt;span style=&quot;margin: 0px; padding: 0px; user-select: text; -webkit-user-drag: none; -webkit-tap-highlight-color: transparent;&quot; class=&quot;NormalTextRun SCXW241746635 BCX0&quot;&gt;this&lt;/span&gt;&lt;/span&gt;&lt;span style=&quot;margin: 0px; padding: 0px; user-select: text; -webkit-user-drag: none; -webkit-tap-highlight-color: transparent; color: rgb(0, 0, 0); font-size: 12pt; text-align: justify; background-color: rgb(255, 255, 255); line-height: 20.175px; font-family: &amp;quot;Times New Roman&amp;quot;, &amp;quot;Times New Roman_EmbeddedFont&amp;quot;, &amp;quot;Times New Roman_MSFontService&amp;quot;, serif; font-weight: bold; font-variant-ligatures: none !important;&quot; class=&quot;TextRun SCXW241746635 BCX0&quot; lang=&quot;EN-US&quot; data-contrast=&quot;none&quot;&gt;&lt;span style=&quot;margin: 0px; padding: 0px; user-select: text; -webkit-user-drag: none; -webkit-tap-highlight-color: transparent;&quot; class=&quot;NormalTextRun SCXW241746635 BCX0&quot;&gt; &lt;/span&gt;&lt;/span&gt;&lt;span style=&quot;margin: 0px; padding: 0px; user-select: text; -webkit-user-drag: none; -webkit-tap-highlight-color: transparent; color: rgb(0, 0, 0); font-size: 12pt; text-align: justify; background-color: rgb(255, 255, 255); text-decoration-line: underline; line-height: 20.175px; font-family: &amp;quot;Times New Roman&amp;quot;, &amp;quot;Times New Roman_EmbeddedFont&amp;quot;, &amp;quot;Times New Roman_MSFontService&amp;quot;, serif; font-weight: bold; font-variant-ligatures: none !important;&quot; class=&quot;TextRun Underlined SCXW241746635 BCX0&quot; lang=&quot;EN-US&quot; data-contrast=&quot;none&quot;&gt;&lt;span style=&quot;margin: 0px; padding: 0px; user-select: text; -webkit-user-drag: none; -webkit-tap-highlight-color: transparent;&quot; class=&quot;NormalTextRun SCXW241746635 BCX0&quot;&gt;message is se&lt;/span&gt;&lt;span style=&quot;margin: 0px; padding: 0px; user-select: text; -webkit-user-drag: none; -webkit-tap-highlight-color: transparent;&quot; class=&quot;NormalTextRun SCXW241746635 BCX0&quot;&gt;nt from Alice&lt;/span&gt;&lt;/span&gt;&lt;span style=&quot;margin: 0px; padding: 0px; user-select: text; -webkit-user-drag: none; -webkit-tap-highlight-color: transparent; color: rgb(0, 0, 0); font-size: 12pt; text-align: justify; background-color: rgb(255, 255, 255); line-height: 20.175px; font-family: &amp;quot;Times New Roman&amp;quot;, &amp;quot;Times New Roman_EmbeddedFont&amp;quot;, &amp;quot;Times New Roman_MSFontService&amp;quot;, serif; font-variant-ligatures: none !important;&quot; class=&quot;TextRun SCXW241746635 BCX0&quot; lang=&quot;EN-US&quot; data-contrast=&quot;none&quot;&gt;&lt;span style=&quot;margin: 0px; padding: 0px; user-select: text; -webkit-user-drag: none; -webkit-tap-highlight-color: transparent;&quot; class=&quot;NormalTextRun SCXW241746635 BCX0&quot;&gt;.&amp;nbsp;&amp;nbsp;&lt;/span&gt;&lt;/span&gt;&lt;span style=&quot;margin: 0px; padding: 0px; user-select: text; -webkit-user-drag: none; -webkit-tap-highlight-color: transparent; color: rgb(0, 0, 0); font-size: 12pt; text-align: justify; background-color: rgb(255, 255, 255); line-height: 20.175px; font-family: &amp;quot;Times New Roman&amp;quot;, &amp;quot;Times New Roman_EmbeddedFont&amp;quot;, &amp;quot;Times New Roman_MSFontService&amp;quot;, serif;&quot; data-ccp-props=&quot;{&amp;quot;201341983&amp;quot;:0,&amp;quot;335551550&amp;quot;:6,&amp;quot;335551620&amp;quot;:6,&amp;quot;335559737&amp;quot;:95,&amp;quot;335559739&amp;quot;:43,&amp;quot;335559740&amp;quot;:269,&amp;quot;335559991&amp;quot;:360}&quot; class=&quot;EOP SCXW241746635 BCX0&quot;&gt;&amp;nbsp;&lt;/span&gt;" style="text;html=1;align=center;verticalAlign=middle;resizable=0;points=[];autosize=1;strokeColor=none;fillColor=none;fontColor=#1A1A1A;" vertex="1" parent="1">
          <mxGeometry x="160" width="540" height="70" as="geometry" />
        </mxCell>
        <mxCell id="B1Vj16RPhi0-6EyoQAJi-3" value="" style="endArrow=classic;html=1;rounded=0;strokeColor=#FFFFFF;fontColor=#FFFFFF;exitX=1.005;exitY=0.467;exitDx=0;exitDy=0;exitPerimeter=0;" edge="1" parent="1" source="3nuBFxr9cyL0pnOWT2aG-2">
          <mxGeometry relative="1" as="geometry">
            <mxPoint x="533" y="247" as="sourcePoint" />
            <mxPoint x="643" y="205" as="targetPoint" />
          </mxGeometry>
        </mxCell>
        <mxCell id="B1Vj16RPhi0-6EyoQAJi-4" value="Public&lt;br&gt;PSK" style="shape=message;html=1;outlineConnect=0;strokeColor=#FFFFFF;fontColor=#1A1A1A;fillColor=#EEEEEE;" vertex="1" parent="B1Vj16RPhi0-6EyoQAJi-3">
          <mxGeometry width="60" height="34" relative="1" as="geometry">
            <mxPoint x="-16" y="-15" as="offset" />
          </mxGeometry>
        </mxCell>
        <mxCell id="B1Vj16RPhi0-6EyoQAJi-6" value="" style="endArrow=classic;html=1;rounded=0;strokeColor=#FFFFFF;fontColor=#FFFFFF;exitX=1.005;exitY=0.467;exitDx=0;exitDy=0;exitPerimeter=0;" edge="1" parent="1">
          <mxGeometry relative="1" as="geometry">
            <mxPoint x="252.9950000000001" y="347.0200000000001" as="sourcePoint" />
            <mxPoint x="639.97" y="347" as="targetPoint" />
          </mxGeometry>
        </mxCell>
        <mxCell id="B1Vj16RPhi0-6EyoQAJi-7" value="a#8$u2@" style="shape=message;html=1;outlineConnect=0;strokeColor=#FFFFFF;fontColor=#1A1A1A;fillColor=#EEEEEE;" vertex="1" parent="B1Vj16RPhi0-6EyoQAJi-6">
          <mxGeometry width="60" height="44" relative="1" as="geometry">
            <mxPoint x="-16" y="-25" as="offset" />
          </mxGeometry>
        </mxCell>
        <mxCell id="B1Vj16RPhi0-6EyoQAJi-12" value="" style="endArrow=classic;html=1;rounded=0;strokeColor=#FFFFFF;fontColor=#FFFFFF;exitX=-0.029;exitY=0.55;exitDx=0;exitDy=0;exitPerimeter=0;entryX=0.976;entryY=0.46;entryDx=0;entryDy=0;entryPerimeter=0;" edge="1" parent="1" source="3nuBFxr9cyL0pnOWT2aG-6" target="B1Vj16RPhi0-6EyoQAJi-9">
          <mxGeometry relative="1" as="geometry">
            <mxPoint x="252.9950000000001" y="277.0200000000001" as="sourcePoint" />
            <mxPoint x="273" y="277" as="targetPoint" />
          </mxGeometry>
        </mxCell>
        <mxCell id="B1Vj16RPhi0-6EyoQAJi-14" value="" style="shape=flexArrow;endArrow=classic;html=1;rounded=0;strokeColor=#FFFFFF;fontColor=#FFFFFF;" edge="1" parent="1">
          <mxGeometry width="50" height="50" relative="1" as="geometry">
            <mxPoint x="73" y="177" as="sourcePoint" />
            <mxPoint x="73" y="517" as="targetPoint" />
          </mxGeometry>
        </mxCell>
        <mxCell id="B1Vj16RPhi0-6EyoQAJi-15" value="COMMUNICATION&lt;br&gt;TIMELINE" style="edgeLabel;html=1;align=center;verticalAlign=middle;resizable=0;points=[];fontColor=#FFFFFF;fillColor=#FFFFFF;" vertex="1" connectable="0" parent="B1Vj16RPhi0-6EyoQAJi-14">
          <mxGeometry x="-0.1397" y="-1" relative="1" as="geometry">
            <mxPoint as="offset" />
          </mxGeometry>
        </mxCell>
        <mxCell id="B1Vj16RPhi0-6EyoQAJi-16" value="Digital Signature&#xa;of &quot;MESSAGE.pdf&quot;" style="points=[];perimeter=orthogonalPerimeter;rounded=0;shadow=0;strokeWidth=1;fillColor=#EEEEEE;strokeColor=#FFFFFF;fontColor=#1A1A1A;" vertex="1" parent="1">
          <mxGeometry x="150.5" y="467" width="105" height="60" as="geometry" />
        </mxCell>
        <mxCell id="B1Vj16RPhi0-6EyoQAJi-18" value="" style="endArrow=classic;html=1;rounded=0;strokeColor=#FFFFFF;fontColor=#FFFFFF;exitX=-0.029;exitY=0.55;exitDx=0;exitDy=0;exitPerimeter=0;entryX=0.976;entryY=0.46;entryDx=0;entryDy=0;entryPerimeter=0;" edge="1" parent="1">
          <mxGeometry relative="1" as="geometry">
            <mxPoint x="643.1999999999998" y="357" as="sourcePoint" />
            <mxPoint x="255.50000000000003" y="421.6" as="targetPoint" />
          </mxGeometry>
        </mxCell>
        <mxCell id="B1Vj16RPhi0-6EyoQAJi-19" value="Encrypts &lt;br&gt;with private&lt;br&gt;key" style="shape=message;html=1;outlineConnect=0;strokeColor=#FFFFFF;fontColor=#1A1A1A;fillColor=#EEEEEE;" vertex="1" parent="1">
          <mxGeometry x="302.99928545556804" y="326.99998827906427" width="60" height="44" as="geometry" />
        </mxCell>
        <mxCell id="B1Vj16RPhi0-6EyoQAJi-20" value="Decrypts&lt;br&gt;with public&lt;br&gt;key" style="shape=message;html=1;outlineConnect=0;strokeColor=#FFFFFF;fontColor=#1A1A1A;fillColor=#EEEEEE;" vertex="1" parent="1">
          <mxGeometry x="542.999285455568" y="326.99998827906427" width="60" height="44" as="geometry" />
        </mxCell>
        <mxCell id="B1Vj16RPhi0-6EyoQAJi-22" value="" style="endArrow=classic;html=1;rounded=0;strokeColor=#FFFFFF;fontColor=#FFFFFF;exitX=1.005;exitY=0.467;exitDx=0;exitDy=0;exitPerimeter=0;" edge="1" parent="1">
          <mxGeometry relative="1" as="geometry">
            <mxPoint x="255.49500000000012" y="496.73000000000013" as="sourcePoint" />
            <mxPoint x="642.4700000000003" y="496.71000000000004" as="targetPoint" />
          </mxGeometry>
        </mxCell>
        <mxCell id="B1Vj16RPhi0-6EyoQAJi-23" value="2!g$x0D" style="shape=message;html=1;outlineConnect=0;strokeColor=#FFFFFF;fontColor=#1A1A1A;fillColor=#EEEEEE;" vertex="1" parent="B1Vj16RPhi0-6EyoQAJi-22">
          <mxGeometry width="60" height="44" relative="1" as="geometry">
            <mxPoint x="-16" y="-25" as="offset" />
          </mxGeometry>
        </mxCell>
        <mxCell id="B1Vj16RPhi0-6EyoQAJi-24" value="Decrypts" style="shape=message;html=1;outlineConnect=0;strokeColor=#FFFFFF;fontColor=#1A1A1A;fillColor=#EEEEEE;" vertex="1" parent="1">
          <mxGeometry x="542.999285455568" y="474.99998827906427" width="60" height="44" as="geometry" />
        </mxCell>
        <mxCell id="B1Vj16RPhi0-6EyoQAJi-25" value="Encrypts" style="shape=message;html=1;outlineConnect=0;strokeColor=#FFFFFF;fontColor=#1A1A1A;fillColor=#EEEEEE;" vertex="1" parent="1">
          <mxGeometry x="302.99928545556804" y="474.99998827906427" width="60" height="44" as="geometry" />
        </mxCell>
      </root>
    </mxGraphModel>
  </diagram>
</mxfile>
